<svg width="96" height="96" xmlns="http://www.w3.org/2000/svg" xmlns:xlink="http://www.w3.org/1999/xlink" xml:space="preserve" overflow="hidden"><g transform="translate(-762 -88)"><path d="M795 118.8C795 123.771 790.971 127.8 786 127.8 781.029 127.8 777 123.771 777 118.8 777 113.829 781.029 109.8 786 109.8 790.971 109.8 795 113.829 795 118.8Z" fill="#FFD966"/><path d="M843 118.8C843 123.771 838.971 127.8 834 127.8 829.029 127.8 825 123.771 825 118.8 825 113.829 829.029 109.8 834 109.8 838.971 109.8 843 113.829 843 118.8Z" fill="#FFD966"/><path d="M828 162.2 828 153.2C828 151.8 827.4 150.4 826.2 149.6 823.8 147.6 820.6 146.2 817.4 145.4 815.2 144.8 812.6 144.2 810 144.2 807.6 144.2 805 144.6 802.6 145.4 799.4 146.2 796.4 147.8 793.8 149.6 792.6 150.6 792 151.8 792 153.2L792 162.2 828 162.2Z" fill="#FFD966"/><path d="M819 132.8C819 137.771 814.971 141.8 810 141.8 805.029 141.8 801 137.771 801 132.8 801 127.829 805.029 123.8 810 123.8 814.971 123.8 819 127.829 819 132.8Z" fill="#FFD966"/><path d="M850.2 135.6C847.8 133.6 844.6 132.2 841.4 131.4 839.2 130.8 836.6 130.2 834 130.2 831.6 130.2 829 130.6 826.6 131.4 825.4 131.8 824.2 132.2 823 132.8L823 133C823 136.4 821.6 139.6 819.4 141.8 823.2 143 826.2 144.6 828.6 146.4 829.2 147 829.8 147.4 830.2 148.2L852 148.2 852 139.2C852 137.8 851.4 136.4 850.2 135.6Z" fill="#FFD966"/><path d="M791.4 146.4 791.4 146.4C794.2 144.4 797.4 142.8 800.6 141.8 798.4 139.4 797 136.4 797 133 797 132.8 797 132.8 797 132.6 795.8 132.2 794.6 131.6 793.4 131.4 791.2 130.8 788.6 130.2 786 130.2 783.6 130.2 781 130.6 778.6 131.4 775.4 132.4 772.4 133.8 769.8 135.6 768.6 136.4 768 137.8 768 139.2L768 148.2 789.6 148.2C790.2 147.4 790.6 147 791.4 146.4Z" fill="#FFD966"/></g></svg>