<svg width="96" height="96" xmlns="http://www.w3.org/2000/svg" xmlns:xlink="http://www.w3.org/1999/xlink" xml:space="preserve" overflow="hidden"><g transform="translate(-764 -197)"><path d="M778 273 846 273 846 279 778 279Z" fill="#C55A11"/><path d="M778 211 786 211 786 269 778 269Z" fill="#C55A11"/><path d="M828 261 846 261 846 269 828 269Z" fill="#C55A11"/><path d="M828 227 846 227 846 257 828 257Z" fill="#C55A11"/><path d="M828 215 846 215 846 223 828 223Z" fill="#C55A11"/><path d="M816 233C814.9 233 814 232.1 814 231 814 229.9 814.9 229 816 229 817.1 229 818 229.9 818 231 818 232.1 817.1 233 816 233ZM816 265C814.9 265 814 264.1 814 263 814 261.9 814.9 261 816 261 817.1 261 818 261.9 818 263 818 264.1 817.1 265 816 265ZM824 225 808 225 808 269 824 269 824 225Z" fill="#C55A11"/><path d="M800 227 794 227 794 221 800 221 800 227ZM804 217 790 217 790 269 804 269 804 217Z" fill="#C55A11"/></g></svg>